<svg width="24" height="24" viewBox="0 0 24 24" fill="none" xmlns="http://www.w3.org/2000/svg">
<path d="M12 0C8.8174 0 5.76515 1.26428 3.51472 3.51472C1.26428 5.76516 0 8.8174 0 12C8.2043e-05 13.5759 0.310553 15.1363 0.913685 16.5922C1.51682 18.048 2.4008 19.3709 3.51516 20.4851C4.62952 21.5993 5.95244 22.4832 7.40838 23.0862C8.86432 23.6892 10.4248 23.9995 12.0006 23.9994C13.5765 23.9993 15.1369 23.6888 16.5928 23.0857C18.0487 22.4826 19.3715 21.5986 20.4857 20.4842C21.6 19.3699 22.4838 18.0469 23.0868 16.591C23.6898 15.1351 24.0001 13.5746 24 11.9988C24 5.3725 18.6263 0 12 0ZM12 21.4988C10.7524 21.4988 9.5171 21.253 8.36451 20.7756C7.21191 20.2982 6.16464 19.5984 5.28249 18.7163C4.40033 17.8341 3.70056 16.7868 3.22314 15.6342C2.74572 14.4817 2.5 13.2463 2.5 11.9988C2.5 10.7512 2.74572 9.51585 3.22314 8.36326C3.70056 7.21066 4.40033 6.16339 5.28249 5.28124C6.16464 4.39908 7.21191 3.69931 8.36451 3.22189C9.5171 2.74447 10.7524 2.49875 12 2.49875V12L20.49 7.755C21.1537 9.07164 21.4997 10.5255 21.5 12C21.4997 14.5193 20.4986 16.9354 18.7171 18.7167C16.9355 20.498 14.5193 21.4988 12 21.4988Z" fill="white"/>
</svg>
