<svg width="24" height="24" viewBox="0 0 24 24" fill="none" xmlns="http://www.w3.org/2000/svg">
<path d="M21 21L21.2578 21.1875C21.0859 21.3438 21 21.5312 21 21.75C21 21.9531 21.0742 22.1289 21.2227 22.2773C21.3711 22.4258 21.5469 22.5 21.75 22.5H22.9922L23.3906 22.8047C22.7812 23.6016 21.9844 24 21 24H3C2.17187 24 1.46484 23.707 0.878906 23.1211C0.292969 22.5352 0 21.8281 0 21V3C0 2.17188 0.292969 1.46484 0.878906 0.878906C1.46484 0.292969 2.17187 0 3 0H21C21.9844 0 22.7812 0.398438 23.3906 1.19531L22.9922 1.5H21.75C21.5469 1.5 21.3711 1.57422 21.2227 1.72266C21.0742 1.87109 21 2.04688 21 2.25C21 2.46875 21.0859 2.65625 21.2578 2.8125L21 3L24 5.25L21 7.5L24 9.75L21 12L24 14.25L21 16.5L24 18.75L21 21ZM12.75 22.5H14.25C14.4531 22.5 14.6289 22.4258 14.7773 22.2773C14.9258 22.1289 15 21.9531 15 21.75C15 21.5469 14.9258 21.3711 14.7773 21.2227C14.6289 21.0742 14.4531 21 14.25 21H12.75C12.5469 21 12.3711 21.0742 12.2227 21.2227C12.0742 21.3711 12 21.5469 12 21.75C12 21.9531 12.0742 22.1289 12.2227 22.2773C12.3711 22.4258 12.5469 22.5 12.75 22.5ZM16.5 18C17.3281 18 18.0352 17.707 18.6211 17.1211C19.207 16.5352 19.5 15.8281 19.5 15C19.5 14.1719 19.207 13.4648 18.6211 12.8789C18.0352 12.293 17.3281 12 16.5 12C15.6719 12 14.9648 12.293 14.3789 12.8789C13.793 13.4648 13.5 14.1719 13.5 15C13.5 15.8281 13.793 16.5352 14.3789 17.1211C14.9648 17.707 15.6719 18 16.5 18ZM8.25 22.5H9.75C9.95312 22.5 10.1289 22.4258 10.2773 22.2773C10.4258 22.1289 10.5 21.9531 10.5 21.75C10.5 21.5469 10.4258 21.3711 10.2773 21.2227C10.1289 21.0742 9.95312 21 9.75 21H8.25C8.04688 21 7.87109 21.0742 7.72266 21.2227C7.57422 21.3711 7.5 21.5469 7.5 21.75C7.5 21.9531 7.57422 22.1289 7.72266 22.2773C7.87109 22.4258 8.04688 22.5 8.25 22.5ZM3.75 22.5H5.25C5.45312 22.5 5.62891 22.4258 5.77734 22.2773C5.92578 22.1289 6 21.9531 6 21.75C6 21.5469 5.92578 21.3711 5.77734 21.2227C5.62891 21.0742 5.45312 21 5.25 21H3.75C3.54688 21 3.37109 21.0742 3.22266 21.2227C3.07422 21.3711 3 21.5469 3 21.75C3 21.9531 3.07422 22.1289 3.22266 22.2773C3.37109 22.4258 3.54688 22.5 3.75 22.5ZM1.5 19.5C1.5 19.7031 1.57422 19.8789 1.72266 20.0273C1.87109 20.1758 2.04688 20.25 2.25 20.25C2.45312 20.25 2.62891 20.1758 2.77734 20.0273C2.92578 19.8789 3 19.7031 3 19.5V18C3 17.7969 2.92578 17.6211 2.77734 17.4727C2.62891 17.3242 2.45312 17.25 2.25 17.25C2.04688 17.25 1.87109 17.3242 1.72266 17.4727C1.57422 17.6211 1.5 17.7969 1.5 18V19.5ZM1.5 15C1.5 15.2031 1.57422 15.3789 1.72266 15.5273C1.87109 15.6758 2.04688 15.75 2.25 15.75C2.45312 15.75 2.62891 15.6758 2.77734 15.5273C2.92578 15.3789 3 15.2031 3 15V13.5C3 13.2969 2.92578 13.1211 2.77734 12.9727C2.62891 12.8242 2.45312 12.75 2.25 12.75C2.04688 12.75 1.87109 12.8242 1.72266 12.9727C1.57422 13.1211 1.5 13.2969 1.5 13.5V15ZM1.5 10.5C1.5 10.7031 1.57422 10.8789 1.72266 11.0273C1.87109 11.1758 2.04688 11.25 2.25 11.25C2.45312 11.25 2.62891 11.1758 2.77734 11.0273C2.92578 10.8789 3 10.7031 3 10.5V9C3 8.79688 2.92578 8.62109 2.77734 8.47266C2.62891 8.32422 2.45312 8.25 2.25 8.25C2.04688 8.25 1.87109 8.32422 1.72266 8.47266C1.57422 8.62109 1.5 8.79688 1.5 9V10.5ZM2.25 3.75C2.04688 3.75 1.87109 3.82422 1.72266 3.97266C1.57422 4.12109 1.5 4.29688 1.5 4.5V6C1.5 6.20312 1.57422 6.37891 1.72266 6.52734C1.87109 6.67578 2.04688 6.75 2.25 6.75C2.45312 6.75 2.62891 6.67578 2.77734 6.52734C2.92578 6.37891 3 6.20312 3 6V4.5C3 4.29688 2.92578 4.12109 2.77734 3.97266C2.62891 3.82422 2.45312 3.75 2.25 3.75ZM5.25 1.5H3.75C3.54688 1.5 3.37109 1.57422 3.22266 1.72266C3.07422 1.87109 3 2.04688 3 2.25C3 2.45312 3.07422 2.62891 3.22266 2.77734C3.37109 2.92578 3.54688 3 3.75 3H5.25C5.45312 3 5.62891 2.92578 5.77734 2.77734C5.92578 2.62891 6 2.45312 6 2.25C6 2.04688 5.92578 1.87109 5.77734 1.72266C5.62891 1.57422 5.45312 1.5 5.25 1.5ZM9.75 1.5H8.25C8.04688 1.5 7.87109 1.57422 7.72266 1.72266C7.57422 1.87109 7.5 2.04688 7.5 2.25C7.5 2.45312 7.57422 2.62891 7.72266 2.77734C7.87109 2.92578 8.04688 3 8.25 3H9.75C9.95312 3 10.1289 2.92578 10.2773 2.77734C10.4258 2.62891 10.5 2.45312 10.5 2.25C10.5 2.04688 10.4258 1.87109 10.2773 1.72266C10.1289 1.57422 9.95312 1.5 9.75 1.5ZM9 6C8.17188 6 7.46484 6.29297 6.87891 6.87891C6.29297 7.46484 6 8.17188 6 9C6 9.82812 6.29297 10.5352 6.87891 11.1211C7.46484 11.707 8.17188 12 9 12C9.82812 12 10.5352 11.707 11.1211 11.1211C11.707 10.5352 12 9.82812 12 9C12 8.17188 11.707 7.46484 11.1211 6.87891C10.5352 6.29297 9.82812 6 9 6ZM14.25 1.5H12.75C12.5469 1.5 12.3711 1.57422 12.2227 1.72266C12.0742 1.87109 12 2.04688 12 2.25C12 2.45312 12.0742 2.62891 12.2227 2.77734C12.3711 2.92578 12.5469 3 12.75 3H14.25C14.4531 3 14.6289 2.92578 14.7773 2.77734C14.9258 2.62891 15 2.45312 15 2.25C15 2.04688 14.9258 1.87109 14.7773 1.72266C14.6289 1.57422 14.4531 1.5 14.25 1.5ZM16.1602 6.10547C15.9961 6.00391 15.8203 5.97656 15.6328 6.02344C15.4453 6.07031 15.2969 6.1875 15.1875 6.375L9.09375 16.8984C9 17.0703 8.97656 17.2578 9.02344 17.4609C9.07031 17.6641 9.17969 17.8164 9.35156 17.918C9.52344 18.0195 9.70312 18.043 9.89062 17.9883C10.0781 17.9336 10.2188 17.8203 10.3125 17.6484L16.4297 7.10156C16.5234 6.92969 16.543 6.74609 16.4883 6.55078C16.4336 6.35547 16.3242 6.20703 16.1602 6.10547ZM18.75 1.5H17.25C17.0469 1.5 16.8711 1.57422 16.7227 1.72266C16.5742 1.87109 16.5 2.04688 16.5 2.25C16.5 2.45312 16.5742 2.62891 16.7227 2.77734C16.8711 2.92578 17.0469 3 17.25 3H18.75C18.9531 3 19.1289 2.92578 19.2773 2.77734C19.4258 2.62891 19.5 2.45312 19.5 2.25C19.5 2.04688 19.4258 1.87109 19.2773 1.72266C19.1289 1.57422 18.9531 1.5 18.75 1.5ZM18.75 21H17.25C17.0469 21 16.8711 21.0742 16.7227 21.2227C16.5742 21.3711 16.5 21.5469 16.5 21.75C16.5 21.9531 16.5742 22.1289 16.7227 22.2773C16.8711 22.4258 17.0469 22.5 17.25 22.5H18.75C18.9531 22.5 19.1289 22.4258 19.2773 22.2773C19.4258 22.1289 19.5 21.9531 19.5 21.75C19.5 21.5469 19.4258 21.3711 19.2773 21.2227C19.1289 21.0742 18.9531 21 18.75 21ZM9.01172 10.5C8.59766 10.5 8.24219 10.3516 7.94531 10.0547C7.64844 9.75781 7.5 9.40234 7.5 8.98828C7.5 8.57422 7.64844 8.22266 7.94531 7.93359C8.24219 7.64453 8.59766 7.5 9.01172 7.5C9.42578 7.5 9.77734 7.64453 10.0664 7.93359C10.3555 8.22266 10.5 8.57422 10.5 8.98828C10.5 9.40234 10.3555 9.75781 10.0664 10.0547C9.77734 10.3516 9.42578 10.5 9.01172 10.5ZM16.5117 13.5C16.9258 13.5 17.2773 13.6445 17.5664 13.9336C17.8555 14.2227 18 14.5742 18 14.9883C18 15.4023 17.8555 15.7578 17.5664 16.0547C17.2773 16.3516 16.9258 16.5 16.5117 16.5C16.0977 16.5 15.7422 16.3516 15.4453 16.0547C15.1484 15.7578 15 15.4023 15 14.9883C15 14.5742 15.1484 14.2227 15.4453 13.9336C15.7422 13.6445 16.0977 13.5 16.5117 13.5Z" fill="white"/>
</svg>
