<svg width="25" height="22" viewBox="0 0 25 22" fill="none" xmlns="http://www.w3.org/2000/svg">
<path d="M14.9662 1.31137C14.2519 0.844396 13.4171 0.595703 12.5637 0.595703C11.7103 0.595703 10.8754 0.844396 10.1611 1.31137L0.666841 7.51795C0.531782 7.60614 0.423621 7.72982 0.354225 7.87543C0.284828 8.02103 0.256878 8.18294 0.273441 8.34339C0.270938 8.37142 0.269766 8.39955 0.269928 8.42769V15.4527C0.269928 15.6856 0.362445 15.9089 0.527125 16.0736C0.691805 16.2383 0.91516 16.3308 1.14805 16.3308C1.38095 16.3308 1.6043 16.2383 1.76898 16.0736C1.93366 15.9089 2.02618 15.6856 2.02618 15.4527V9.90997L3.78243 11.0989V17.5619C3.78243 17.7727 3.85795 17.9747 3.99318 18.1327L3.99669 18.138L4.00723 18.1503L4.04235 18.1889L4.16178 18.3189C4.2654 18.4278 4.41468 18.5788 4.60787 18.758C4.99424 19.1145 5.56151 19.5851 6.29211 20.0576C7.7498 20.9972 9.89067 21.9543 12.5637 21.9543C15.2367 21.9543 17.3758 20.9972 18.8352 20.0576C19.5658 19.5851 20.1331 19.1145 20.5195 18.758C20.7159 18.5763 20.9045 18.3864 21.085 18.1889L21.1201 18.1503L21.1307 18.138L21.1342 18.1345L21.1359 18.131C21.2705 17.9726 21.3446 17.7716 21.3449 17.5637V11.0972L24.4711 8.98091C24.5972 8.90638 24.7001 8.79826 24.7683 8.66863C24.8365 8.53899 24.8674 8.39295 24.8574 8.2468C24.8563 8.10184 24.8193 7.95943 24.7497 7.83225C24.6802 7.70507 24.5802 7.5971 24.4588 7.51795L14.9662 1.31137ZM19.5887 12.2844V17.2142C19.0684 17.7267 18.497 18.1845 17.8834 18.5806C16.6189 19.3937 14.8082 20.1963 12.5637 20.1963C10.3192 20.1963 8.50674 19.3937 7.244 18.5806C6.63032 18.184 6.05889 17.7255 5.53868 17.2125V12.2862L10.1032 15.3754C10.8296 15.8669 11.6866 16.1296 12.5637 16.1296C13.4408 16.1296 14.2978 15.8669 15.0242 15.3754L19.5887 12.2844ZM4.66055 17.5619L3.99318 18.131L4.66055 17.5602V17.5619ZM11.1218 2.78135C11.5504 2.50102 12.0515 2.35172 12.5637 2.35172C13.0759 2.35172 13.5769 2.50102 14.0056 2.78135L22.3934 8.25207L14.0407 13.9212C13.6047 14.2165 13.0902 14.3742 12.5637 14.3742C12.0371 14.3742 11.5227 14.2165 11.0867 13.9212L2.73219 8.26612L11.1236 2.78135H11.1218Z" fill="#AA66CC"/>
</svg>
