<svg width="25" height="25" viewBox="0 0 25 25" fill="none" xmlns="http://www.w3.org/2000/svg">
<path d="M21.7829 2.38318C22.1904 2.38318 22.5813 2.54509 22.8695 2.83328C23.1577 3.12147 23.3196 3.51234 23.3196 3.9199V16.2137C23.3196 16.6212 23.1577 17.0121 22.8695 17.3003C22.5813 17.5885 22.1904 17.7504 21.7829 17.7504H7.05188C6.23682 17.7505 5.4552 18.0745 4.87895 18.6509L1.80552 21.7243V3.9199C1.80552 3.51234 1.96742 3.12147 2.25561 2.83328C2.5438 2.54509 2.93467 2.38318 3.34224 2.38318H21.7829ZM3.34224 0.846466C2.52711 0.846466 1.74537 1.17027 1.16899 1.74666C0.592607 2.32304 0.268799 3.10478 0.268799 3.9199L0.268799 23.5791C0.268831 23.7312 0.313967 23.8798 0.398494 24.0062C0.48302 24.1325 0.603138 24.231 0.743644 24.2891C0.88415 24.3471 1.03873 24.3622 1.18781 24.3324C1.3369 24.3026 1.47379 24.2292 1.58116 24.1216L5.96542 19.7374C6.25354 19.4491 6.64435 19.2872 7.05188 19.2871H21.7829C22.598 19.2871 23.3797 18.9633 23.9561 18.3869C24.5325 17.8105 24.8563 17.0288 24.8563 16.2137V3.9199C24.8563 3.10478 24.5325 2.32304 23.9561 1.74666C23.3797 1.17027 22.598 0.846466 21.7829 0.846466L3.34224 0.846466Z" fill="#AA66CC"/>
<path d="M7.95234 10.0668C7.95234 10.4743 7.79044 10.8652 7.50225 11.1534C7.21406 11.4416 6.82319 11.6035 6.41562 11.6035C6.00806 11.6035 5.61719 11.4416 5.329 11.1534C5.04081 10.8652 4.87891 10.4743 4.87891 10.0668C4.87891 9.65922 5.04081 9.26835 5.329 8.98015C5.61719 8.69196 6.00806 8.53006 6.41562 8.53006C6.82319 8.53006 7.21406 8.69196 7.50225 8.98015C7.79044 9.26835 7.95234 9.65922 7.95234 10.0668ZM14.0992 10.0668C14.0992 10.4743 13.9373 10.8652 13.6491 11.1534C13.3609 11.4416 12.9701 11.6035 12.5625 11.6035C12.1549 11.6035 11.7641 11.4416 11.4759 11.1534C11.1877 10.8652 11.0258 10.4743 11.0258 10.0668C11.0258 9.65922 11.1877 9.26835 11.4759 8.98015C11.7641 8.69196 12.1549 8.53006 12.5625 8.53006C12.9701 8.53006 13.3609 8.69196 13.6491 8.98015C13.9373 9.26835 14.0992 9.65922 14.0992 10.0668ZM20.2461 10.0668C20.2461 10.4743 20.0842 10.8652 19.796 11.1534C19.5078 11.4416 19.1169 11.6035 18.7094 11.6035C18.3018 11.6035 17.9109 11.4416 17.6228 11.1534C17.3346 10.8652 17.1727 10.4743 17.1727 10.0668C17.1727 9.65922 17.3346 9.26835 17.6228 8.98015C17.9109 8.69196 18.3018 8.53006 18.7094 8.53006C19.1169 8.53006 19.5078 8.69196 19.796 8.98015C20.0842 9.26835 20.2461 9.65922 20.2461 10.0668Z" fill="#AA66CC"/>
</svg>
