<svg width="25" height="24" viewBox="0 0 25 24" fill="none" xmlns="http://www.w3.org/2000/svg">
<path fill-rule="evenodd" clip-rule="evenodd" d="M12.3011 2.08554C12.1888 2.08554 11.9123 2.11639 11.7655 2.41011L9.51204 6.91578C9.15539 7.62785 8.468 8.12272 7.67324 8.23625L2.62828 8.96313C2.29507 9.01126 2.18154 9.25808 2.14698 9.36175C2.11613 9.46171 2.06677 9.71593 2.29631 9.9356L5.94428 13.4404C6.52554 13.9995 6.78963 14.8053 6.65142 15.5939L5.79249 20.5426C5.73942 20.8524 5.93318 21.0325 6.01956 21.0943C6.11088 21.1634 6.35523 21.3003 6.65759 21.1424L11.1682 18.8038C11.879 18.4373 12.7256 18.4373 13.434 18.8038L17.9434 21.1411C18.2469 21.2979 18.4913 21.1609 18.5838 21.0943C18.6702 21.0325 18.864 20.8524 18.8109 20.5426L17.9495 15.5939C17.8113 14.8053 18.0754 13.9995 18.6567 13.4404L22.3046 9.9356C22.5354 9.71593 22.486 9.46047 22.454 9.36175C22.4206 9.25808 22.3071 9.01126 21.9739 8.96313L16.9289 8.23625C16.1354 8.12272 15.448 7.62785 15.0914 6.91454L12.8354 2.41011C12.6898 2.11639 12.4134 2.08554 12.3011 2.08554ZM6.37375 23.0651C5.86407 23.0651 5.35809 22.9047 4.92492 22.5887C4.17706 22.0408 3.81054 21.1362 3.96974 20.2255L4.82866 15.2767C4.86075 15.0929 4.79781 14.9065 4.66206 14.7757L1.01409 11.2709C0.342741 10.6279 0.102093 9.67767 0.385934 8.7953C0.672243 7.90305 1.42998 7.26502 2.36418 7.13174L7.40915 6.40486C7.60414 6.37771 7.77197 6.25801 7.85589 6.0877L10.1106 1.5808C10.5265 0.750256 11.3656 0.234406 12.3011 0.234406C13.2365 0.234406 14.0757 0.750256 14.4916 1.5808L16.7475 6.08647C16.8327 6.25801 16.9993 6.37771 17.193 6.40486L22.238 7.13174C23.1722 7.26502 23.9299 7.90305 24.2162 8.7953C24.5001 9.67767 24.2582 10.6279 23.5869 11.2709L19.9389 14.7757C19.8031 14.9065 19.7414 15.0929 19.7735 15.2755L20.6337 20.2255C20.7916 21.1374 20.4251 22.042 19.676 22.5887C18.9171 23.1453 17.9285 23.2206 17.0906 22.7837L12.5825 20.4476C12.406 20.3563 12.195 20.3563 12.0185 20.4476L7.51034 22.785C7.14999 22.9725 6.76125 23.0651 6.37375 23.0651Z" fill="#AA66CC"/>
</svg>
